<svg xmlns="http://www.w3.org/2000/svg" viewBox="0 0 188.28 214.37"><defs><style>.cls-1{fill:#d15a3f;}.cls-2{fill:#fff;}.cls-3{fill:#f5f5f5;}.cls-4{fill:#eee;}.cls-5{fill:#9c894f;}.cls-6{fill:#7c6c3d;}.cls-7{fill:#ad9b67;}.cls-8{opacity:0.7;}</style></defs><title>icon_rank_authorized</title><g id="icon_rank_authorized_01" data-name="icon_rank_authorized_01"><g id="icon_rank_authorized_02" data-name="icon_rank_authorized_02"><polygon class="cls-1" points="46.38 98.3 0 178.63 5.77 179.4 51.04 100.99 46.38 98.3"/><polygon class="cls-1" points="53.66 102.5 9.01 179.83 38.33 183.73 56.35 207.16 101 129.84 53.66 102.5"/><polygon class="cls-1" points="108.28 134.04 103.62 131.35 58.35 209.75 61.9 214.37 108.28 134.04"/><line class="cls-2" x1="51.04" y1="100.99" x2="53.66" y2="102.5"/><line class="cls-2" x1="9.01" y1="179.83" x2="5.77" y2="179.4"/><line class="cls-2" x1="58.35" y1="209.75" x2="56.36" y2="207.16"/><line class="cls-2" x1="101" y1="129.84" x2="103.62" y2="131.35"/><polygon class="cls-3" points="51.04 100.99 5.77 179.4 9.01 179.83 53.66 102.5 51.04 100.99"/><polygon class="cls-3" points="101 129.84 56.35 207.16 58.35 209.75 103.62 131.35 101 129.84"/><polygon class="cls-1" points="80 134.04 126.38 214.37 129.93 209.75 84.66 131.35 80 134.04"/><polygon class="cls-1" points="87.28 129.84 131.92 207.16 149.95 183.72 179.26 179.83 134.62 102.5 87.28 129.84"/><polygon class="cls-1" points="141.9 98.3 137.24 100.99 182.5 179.4 188.28 178.63 141.9 98.3"/><line class="cls-2" x1="84.66" y1="131.35" x2="87.28" y2="129.84"/><line class="cls-2" x1="131.92" y1="207.16" x2="129.93" y2="209.76"/><line class="cls-2" x1="182.51" y1="179.4" x2="179.26" y2="179.83"/><line class="cls-2" x1="134.62" y1="102.5" x2="137.24" y2="100.99"/><polygon class="cls-4" points="84.66 131.35 129.93 209.75 131.92 207.16 87.28 129.84 84.66 131.35"/><polygon class="cls-4" points="134.62 102.5 179.26 179.83 182.5 179.4 137.24 100.99 134.62 102.5"/><path class="cls-5" d="M181.26,99.18l4.37-8.07L181.26,83l2.83-8.74-5.78-7.13,1.16-9.11-7-5.95-.54-9.16-8-4.56-2.22-8.91-8.67-3-3.8-8.36-9.08-1.38-5.27-7.52-9.17.31-6.58-6.41-9,2L102.58,0,94.14,3.62,85.7,0,78.06,5.09l-9-2L62.53,9.5l-9.18-.31-5.27,7.52L39,18.09l-3.8,8.36-8.67,3-2.21,8.91-8,4.55L15.8,52.1,8.81,58,10,67.15,4.19,74.29,7,83,2.65,91.11,7,99.18l-2.83,8.74L10,115.06l-1.17,9.1,7,6,.54,9.17,8,4.55,2.21,8.91,8.67,3L39,164.12l9.08,1.38L53.35,173l9.17-.31,6.57,6.42,9-2,7.65,5.09,8.44-3.61,8.44,3.61,7.64-5.09,9,2,6.57-6.42,9.18.31,5.27-7.51,9.08-1.39,3.8-8.35,8.67-3,2.21-8.92,8-4.55.55-9.17,7-5.94-1.16-9.11,5.78-7.14Z"/><path class="cls-6" d="M94.14,11.86a79.24,79.24,0,1,0,56,23.21A79.34,79.34,0,0,0,94.14,11.86Z"/><path class="cls-5" d="M94.14,16.05a75,75,0,1,0,53.07,22A75.14,75.14,0,0,0,94.14,16.05Z"/><path class="cls-7" d="M147.21,38a75,75,0,1,0-106,106.25L147.34,38.17Z"/><g class="cls-8"><path class="cls-2" d="M72.57,123.36l-9,1.74c-2,.34-3.73.71-3.35,2.93s2.17,2,4.14,1.63l11.12-1.72A23.43,23.43,0,0,1,72.57,123.36Z"/><path class="cls-2" d="M83.65,134.55a26.63,26.63,0,0,1-4.85-3.24,8.38,8.38,0,0,1-4.37.11c-.4-.89-.91-1.44-1.49-1.44-1.27,0-2.32,2.65-2.34,5.92a9.4,9.4,0,0,0,1.26,5.31,2.58,2.58,0,1,0,3.25-3.4,14.23,14.23,0,0,0,.13-1.88c0-.5,0-1-.07-1.43A11.64,11.64,0,0,0,83.65,134.55Z"/><path class="cls-2" d="M133.11,131.12c-.94-1.43-4.66-.64-8.31,1.76-.55.36-1,.74-1.53,1.12-1.47-6.92-6.87-10.71-11.8-12.36a25.5,25.5,0,0,0,.44-4.44,26.85,26.85,0,0,0-.61-6.11,31,31,0,0,0,7.32-6.44l-27.06-19,16.17-28.87A30.61,30.61,0,0,0,97.26,54,31.06,31.06,0,0,0,93,54l-3.32.36a31,31,0,0,0-15.75,53.51l26.5-8.72,3.47,10.56c2.58,7.84.86,16.17-3.93,22.85a21.68,21.68,0,0,0,7.43-3.31c6.07,1.61,11.64,4.23,13,7.9-.68,1.09-.92,2.07-.49,2.7.93,1.43,4.65.64,8.3-1.76S134.05,132.54,133.11,131.12Z"/><path class="cls-2" d="M54.82,57.2C44.73,83.7,37.29,75.06,33.28,72.34c6.06,13.82,28.74,19.58,37-15.47C74,41.18,84.39,43.81,89.63,54.31L93,54C90.25,39.5,65.63,28.79,54.82,57.2Z"/><path class="cls-2" d="M102.12,110.23l-2.9-8.82-29,9.55,2.9,8.83c2.89,8.79,11.24,15,21.39,16.1C102,129,105,119,102.12,110.23Zm-2.36,15.65L84.25,131l-.29-.88.75-.24a1.79,1.79,0,0,0,1.19-2.52l-4.94-15a1.44,1.44,0,0,0-2-1l-1.06.36-.29-.88,9.62-3.16.29.88-.83.27a1.67,1.67,0,0,0-1,2.22l4.93,15c.39,1.2,1,1.55,2.13,1.19l.4-.13A8.31,8.31,0,0,0,99,120.34l.86.13Z"/><path class="cls-2" d="M112.61,53,94.73,84.89l29.87,21a36.51,36.51,0,0,0-12-52.91Zm-2.3,34.7-2.55-1.79c0-.2,0-.39,0-.59a16.09,16.09,0,0,0-1.6-7l1.56-2.76a18.7,18.7,0,0,1,2.57,12.17Zm6.7,4.72L114.4,90.6a24.19,24.19,0,0,0,.59-5.24,23.54,23.54,0,0,0-4.76-14.26l1.58-2.81A26.69,26.69,0,0,1,117,92.44Zm6.73,4.74-2.66-1.88a31.62,31.62,0,0,0-6.77-31.36l1.61-2.86a34.76,34.76,0,0,1,7.82,36.1Z"/><path class="cls-2" d="M136.07,107.18c-3.64.42-9.53,1.62-9.53,1.62a7,7,0,0,0-4,3.19c-1.66,2.55-4.14,3.24-6.52,1.69l-2.24.14c0,.59.53,2.3.59,2.89.34,3.38-.36,2-.58,3.48-.22-.11-.48-.22,0,0,.27.11.21.07.09,0l3.32.15c1.71-2.26,4.28-2.45,6.7-.61a7,7,0,0,0,4.89,1.64,78.93,78.93,0,0,0,9-.66c5.51-1,11.3-8.49,11.3-8.49S141.63,106.53,136.07,107.18Zm-14.07,9c3-1.09,4.27-5,6.85-5.53l7.84-.92c3.22-.57,6.28,1.71,9.07,3.22Z"/></g></g></g></svg>